<svg width="1200" height="630" viewBox="0 0 1200 630" xmlns="http://www.w3.org/2000/svg"><defs><pattern id="satori_pattern_id_0" x="0" y="0" width="1" height="1" patternUnits="objectBoundingBox"><linearGradient id="satori_biid_0" x1="0" y1="0" x2="0" y2="1"><stop offset="0%" stop-color="#dbf4ff"/><stop offset="100%" stop-color="#fff1f1"/></linearGradient><rect x="0" y="0" width="1200" height="630" fill="url(#satori_biid_0)"/></pattern></defs><mask id="satori_om-id"><rect x="0" y="0" width="1200" height="630" fill="#fff"/></mask><rect x="0" y="0" width="1200" height="630" fill="url(#satori_pattern_id_0)"/><clipPath id="satori_bct-id-0"><path d="M480.0 298.2L470.8 298.2L470.8 254.5L488.0 254.5Q493.0 254.5 496.5 256.3Q500.0 258.0 501.8 261.2Q503.6 264.5 503.6 268.8L503.6 268.8Q503.6 273.1 501.8 276.2Q499.9 279.4 496.4 281.0Q492.8 282.7 487.8 282.7L487.8 282.7L476.2 282.7L476.2 275.3L486.3 275.3Q488.9 275.3 490.7 274.6Q492.4 273.8 493.3 272.4Q494.1 270.9 494.1 268.8L494.1 268.8Q494.1 266.6 493.3 265.1Q492.4 263.6 490.7 262.8Q488.9 262.1 486.2 262.1L486.2 262.1L480.0 262.1L480.0 298.2ZM484.4 278.3L494.4 278.3L505.2 298.2L495.0 298.2L484.4 278.3ZM522.4 298.8L522.4 298.8Q517.3 298.8 513.7 296.7Q510.0 294.7 508.1 290.9Q506.1 287.1 506.1 281.9L506.1 281.9Q506.1 276.9 508.1 273.1Q510.0 269.3 513.6 267.1Q517.2 265.0 522.0 265.0L522.0 265.0Q525.2 265.0 528.0 266.0Q530.8 267.1 532.9 269.1Q535.0 271.2 536.2 274.3Q537.4 277.5 537.4 281.6L537.4 281.6L537.4 284.1L509.7 284.1L509.7 278.5L528.8 278.5Q528.8 276.5 528.0 275.0Q527.1 273.5 525.6 272.6Q524.1 271.8 522.1 271.8L522.1 271.8Q520.1 271.8 518.5 272.7Q516.9 273.7 516.0 275.3Q515.1 276.9 515.1 278.8L515.1 278.8L515.1 284.1Q515.1 286.6 516.0 288.3Q516.9 290.1 518.6 291.1Q520.2 292.0 522.5 292.0L522.5 292.0Q524.0 292.0 525.3 291.6Q526.5 291.2 527.4 290.3Q528.3 289.5 528.8 288.2L528.8 288.2L537.2 288.8Q536.5 291.8 534.6 294.1Q532.6 296.3 529.5 297.6Q526.4 298.8 522.4 298.8ZM550.6 298.8L550.6 298.8Q547.5 298.8 545.1 297.7Q542.6 296.6 541.2 294.4Q539.8 292.3 539.8 289.0L539.8 289.0Q539.8 286.3 540.8 284.4Q541.8 282.6 543.5 281.5Q545.2 280.3 547.4 279.8Q549.6 279.2 552.1 278.9L552.1 278.9Q554.9 278.6 556.7 278.4Q558.4 278.1 559.2 277.6Q560.0 277.0 560.0 276.0L560.0 276.0L560.0 275.9Q560.0 273.8 558.7 272.7Q557.5 271.6 555.1 271.6L555.1 271.6Q552.7 271.6 551.2 272.7Q549.8 273.8 549.3 275.4L549.3 275.4L540.9 274.7Q541.6 271.7 543.4 269.6Q545.3 267.4 548.3 266.2Q551.3 265.0 555.2 265.0L555.2 265.0Q557.9 265.0 560.4 265.6Q562.9 266.3 564.9 267.6Q566.8 269.0 567.9 271.1Q569.1 273.2 569.1 276.1L569.1 276.1L569.1 298.2L560.5 298.2L560.5 293.6L560.2 293.6Q559.4 295.2 558.1 296.3Q556.8 297.5 554.9 298.1Q553.1 298.8 550.6 298.8ZM553.2 292.5L553.2 292.5Q555.2 292.5 556.8 291.7Q558.3 290.9 559.2 289.6Q560.1 288.2 560.1 286.5L560.1 286.5L560.1 283.0Q559.6 283.3 558.9 283.5Q558.2 283.7 557.2 283.9Q556.3 284.1 555.4 284.2Q554.5 284.4 553.7 284.5L553.7 284.5Q552.1 284.7 551.0 285.2Q549.8 285.7 549.1 286.6Q548.4 287.4 548.4 288.7L548.4 288.7Q548.4 290.6 549.8 291.5Q551.1 292.5 553.2 292.5ZM588.9 298.8L588.9 298.8Q583.9 298.8 580.3 296.7Q576.7 294.5 574.7 290.7Q572.8 286.9 572.8 281.9L572.8 281.9Q572.8 276.9 574.7 273.1Q576.7 269.3 580.3 267.1Q583.9 265.0 588.9 265.0L588.9 265.0Q593.1 265.0 596.4 266.6Q599.6 268.1 601.5 270.9Q603.3 273.7 603.5 277.5L603.5 277.5L595.0 277.5Q594.6 275.1 593.0 273.6Q591.5 272.1 589.0 272.1L589.0 272.1Q586.9 272.1 585.3 273.2Q583.8 274.4 582.9 276.5Q582.0 278.7 582.0 281.8L582.0 281.8Q582.0 284.9 582.9 287.1Q583.7 289.3 585.3 290.5Q586.9 291.6 589.0 291.6L589.0 291.6Q590.6 291.6 591.8 291.0Q593.1 290.3 593.9 289.1Q594.7 287.9 595.0 286.2L595.0 286.2L603.5 286.2Q603.3 289.9 601.5 292.8Q599.7 295.6 596.5 297.2Q593.3 298.8 588.9 298.8ZM605.1 265.4L624.8 265.4L624.8 272.3L605.1 272.3L605.1 265.4ZM609.5 289.3L609.5 257.6L618.6 257.6L618.6 288.1Q618.6 289.4 619.0 290.1Q619.4 290.7 620.1 291.0Q620.8 291.3 621.7 291.3L621.7 291.3Q622.3 291.3 623.0 291.2Q623.6 291.1 623.9 291.0L623.9 291.0L625.4 297.8Q624.7 298.0 623.4 298.3Q622.2 298.5 620.4 298.6L620.4 298.6Q617.2 298.7 614.7 297.7Q612.2 296.7 610.9 294.6Q609.5 292.5 609.5 289.3L609.5 289.3ZM655.8 282.1L655.8 254.5L665.0 254.5L665.0 282.9Q665.0 287.6 662.7 291.2Q660.5 294.8 656.4 296.8Q652.3 298.8 646.9 298.8L646.9 298.8Q641.5 298.8 637.4 296.8Q633.4 294.8 631.1 291.2Q628.8 287.6 628.8 282.9L628.8 282.9L628.8 254.5L638.1 254.5L638.1 282.1Q638.1 284.6 639.2 286.5Q640.3 288.4 642.3 289.6Q644.3 290.7 646.9 290.7L646.9 290.7Q649.6 290.7 651.6 289.6Q653.6 288.4 654.7 286.5Q655.8 284.6 655.8 282.1L655.8 282.1ZM697.7 274.8L697.7 274.8L689.4 275.3Q689.1 274.2 688.4 273.3Q687.7 272.5 686.6 272.0Q685.5 271.4 683.9 271.4L683.9 271.4Q681.8 271.4 680.3 272.3Q678.9 273.2 678.9 274.7L678.9 274.7Q678.9 275.9 679.8 276.7Q680.7 277.5 683.0 278.0L683.0 278.0L688.9 279.2Q693.7 280.1 696.1 282.3Q698.4 284.5 698.4 288.0L698.4 288.0Q698.4 291.2 696.5 293.7Q694.6 296.1 691.4 297.4Q688.1 298.8 683.8 298.8L683.8 298.8Q677.3 298.8 673.5 296.1Q669.6 293.4 669.0 288.7L669.0 288.7L677.9 288.2Q678.3 290.2 679.9 291.2Q681.4 292.3 683.9 292.3L683.9 292.3Q686.2 292.3 687.7 291.3Q689.2 290.4 689.2 288.9L689.2 288.9Q689.2 287.7 688.1 286.9Q687.1 286.1 685.0 285.7L685.0 285.7L679.3 284.5Q674.5 283.6 672.2 281.2Q669.9 278.9 669.9 275.2L669.9 275.2Q669.9 272.0 671.6 269.8Q673.3 267.5 676.4 266.2Q679.5 265.0 683.7 265.0L683.7 265.0Q689.9 265.0 693.5 267.6Q697.1 270.2 697.7 274.8ZM717.1 298.8L717.1 298.8Q712.0 298.8 708.4 296.7Q704.7 294.7 702.8 290.9Q700.8 287.1 700.8 281.9L700.8 281.9Q700.8 276.9 702.8 273.1Q704.7 269.3 708.3 267.1Q711.9 265.0 716.7 265.0L716.7 265.0Q719.9 265.0 722.7 266.0Q725.5 267.1 727.6 269.1Q729.7 271.2 730.9 274.3Q732.1 277.5 732.1 281.6L732.1 281.6L732.1 284.1L704.4 284.1L704.4 278.5L723.5 278.5Q723.5 276.5 722.7 275.0Q721.8 273.5 720.3 272.6Q718.8 271.8 716.8 271.8L716.8 271.8Q714.8 271.8 713.2 272.7Q711.6 273.7 710.7 275.3Q709.8 276.9 709.8 278.8L709.8 278.8L709.8 284.1Q709.8 286.6 710.7 288.3Q711.6 290.1 713.3 291.1Q714.9 292.0 717.2 292.0L717.2 292.0Q718.7 292.0 720.0 291.6Q721.2 291.2 722.1 290.3Q723.0 289.5 723.5 288.2L723.5 288.2L731.9 288.8Q731.2 291.8 729.3 294.1Q727.3 296.3 724.2 297.6Q721.1 298.8 717.1 298.8Z "/></clipPath><defs><pattern id="satori_pattern_id-0_0" x="0" y="0" width="1" height="1" patternUnits="objectBoundingBox"><linearGradient id="satori_biid-0_0" x1="0" y1="0" x2="1" y2="0"><stop offset="0%" stop-color="rgb(0,124,240)"/><stop offset="100%" stop-color="rgb(0,223,216)"/></linearGradient><rect x="0" y="0" width="266" height="73" fill="url(#satori_biid-0_0)"/></pattern></defs><mask id="satori_om-id-0"><rect x="467" y="242" width="266" height="73" fill="#fff"/></mask><rect x="467" y="242" width="266" height="73" fill="url(#satori_pattern_id-0_0)" clip-path="url(#satori_bct-id-0)"/><clipPath id="satori_bct-id-1"><path d="M530.9 371.7L530.9 371.7Q528.8 371.7 527.3 370.2Q525.8 368.7 525.8 366.6L525.8 366.6Q525.8 364.5 527.3 363.0Q528.8 361.5 530.9 361.5L530.9 361.5Q533.0 361.5 534.5 363.0Q536.0 364.5 536.0 366.6L536.0 366.6Q536.0 368.0 535.3 369.2Q534.6 370.3 533.5 371.0Q532.3 371.7 530.9 371.7ZM580.1 342.8L580.1 342.8L570.8 342.8Q570.6 341.0 569.8 339.6Q569.0 338.2 567.7 337.2Q566.5 336.2 564.9 335.6Q563.3 335.1 561.4 335.1L561.4 335.1Q558.0 335.1 555.5 336.8Q553.0 338.4 551.6 341.6Q550.2 344.8 550.2 349.3L550.2 349.3Q550.2 354.0 551.6 357.2Q553.0 360.4 555.5 362.0Q558.1 363.6 561.4 363.6L561.4 363.6Q563.2 363.6 564.8 363.1Q566.4 362.6 567.6 361.7Q568.9 360.7 569.7 359.4Q570.5 358.0 570.8 356.2L570.8 356.2L580.1 356.3Q579.8 359.3 578.3 362.1Q576.9 364.9 574.5 367.0Q572.1 369.2 568.7 370.5Q565.4 371.8 561.2 371.8L561.2 371.8Q555.4 371.8 550.8 369.1Q546.2 366.5 543.5 361.5Q540.9 356.5 540.9 349.3L540.9 349.3Q540.9 342.2 543.6 337.2Q546.3 332.2 550.9 329.6Q555.5 326.9 561.2 326.9L561.2 326.9Q565 326.9 568.2 328.0Q571.5 329.1 574.0 331.1Q576.5 333.1 578.1 336.1Q579.7 339.0 580.1 342.8ZM624.9 349.3L624.9 349.3Q624.9 356.5 622.2 361.5Q619.5 366.5 614.9 369.1Q610.2 371.8 604.4 371.8L604.4 371.8Q598.6 371.8 594.0 369.1Q589.4 366.5 586.7 361.5Q584.0 356.5 584.0 349.3L584.0 349.3Q584.0 342.2 586.7 337.2Q589.4 332.2 594.0 329.6Q598.6 326.9 604.4 326.9L604.4 326.9Q610.2 326.9 614.9 329.6Q619.5 332.2 622.2 337.2Q624.9 342.2 624.9 349.3ZM615.5 349.3L615.5 349.3Q615.5 344.7 614.1 341.5Q612.8 338.4 610.3 336.7Q607.8 335.1 604.4 335.1L604.4 335.1Q601.1 335.1 598.6 336.7Q596.1 338.4 594.7 341.5Q593.4 344.7 593.4 349.3L593.4 349.3Q593.4 354.0 594.7 357.1Q596.1 360.3 598.6 362.0Q601.1 363.6 604.4 363.6L604.4 363.6Q607.8 363.6 610.3 362.0Q612.8 360.3 614.1 357.1Q615.5 354.0 615.5 349.3ZM629.7 371.2L629.7 327.5L641.1 327.5L653.1 356.8L653.6 356.8L665.6 327.5L677.0 327.5L677.0 371.2L668.0 371.2L668.0 342.8L667.7 342.8L656.4 370.9L650.3 370.9L639.0 342.7L638.6 342.7L638.6 371.2L629.7 371.2Z "/></clipPath><defs><pattern id="satori_pattern_id-1_0" x="0" y="0" width="1" height="1" patternUnits="objectBoundingBox"><linearGradient id="satori_biid-1_0" x1="0" y1="0" x2="1" y2="0"><stop offset="0%" stop-color="rgb(121,40,202)"/><stop offset="100%" stop-color="rgb(255,0,128)"/></linearGradient><rect x="0" y="0" width="157" height="73" fill="url(#satori_biid-1_0)"/></pattern></defs><mask id="satori_om-id-1"><rect x="522" y="315" width="157" height="73" fill="#fff"/></mask><rect x="522" y="315" width="157" height="73" fill="url(#satori_pattern_id-1_0)" clip-path="url(#satori_bct-id-1)"/></svg>