<svg xmlns="http://www.w3.org/2000/svg" fill="none" viewBox="0 0 128 128"><path d="M50.4 78.5a75.1 75.1 0 0 0-28.5 6.9c24.2-65.1 44.7-40.5 58.4-58.7 1.1-1.5 2.2-3.3 3.3-5.3-12.8 12.8-21 22.5-24.6 28.6-5.4 9.1-7.7 21-8.6 28.5Z" fill="url(#a)"/><path d="M135.2 56.7s-27.5 8.2-34.9 37.2c-1.6 6.5-5.2 11.3-10.2 14.5-5 3.2-11 4.4-17.2 3.4-11.2-1.7-20.6-11-22-22.3-1.5-11.3 4-19.8 13.3-27a86.7 86.7 0 0 1 35.1-16.5l1.2-0.3c1.2-0.4 2.4-0.8 3.6-1.3 5.3-2.1 10.2-5 14.6-8.3a46.9 46.9 0 0 0 10.6-11 36 36 0 0 0 5.9-13.4Z" fill="url(#b)"/><defs><linearGradient id="a" x1="6" y1="65" x2="74" y2="120" gradientUnits="userSpaceOnUse"><stop stop-color="#D83333"/><stop offset="1" stop-color="#F041FF"/></linearGradient><linearGradient id="b" x1="50" y1="0" x2="120" y2="80" gradientUnits="userSpaceOnUse"><stop stop-color="#FF5D01"/><stop offset="1" stop-color="#FF8A3C"/></linearGradient></defs></svg>
