<svg t="1653553738629" class="icon" viewBox="0 0 1024 1024" version="1.1" xmlns="http://www.w3.org/2000/svg" p-id="3460" width="200" height="200"><path d="M1007.492874 384.513055c-8.795694-34.58307-21.189627-67.666874-36.682043-99.05151-2.698679-5.397358-10.894667-3.498287-10.894666 2.598728v0.299853c0 32.484098-6.896624 63.868734-19.890263 92.554691-10.694764 23.488501-25.487523 45.077933-43.978471 64.068635-41.779547 42.679107-99.05151 66.967217-158.722299 67.26707-61.869712 0.299853-119.941284-24.188159-162.920244-68.966238-40.280281-41.979449-62.56937-98.251902-62.269516-156.323473 0.399804-59.270984 23.588452-114.94373 65.567901-156.823229 19.59041-19.59041 42.179351-35.082826 66.667364-46.077443C672.956643 71.166451 704.041426 64.469729 736.125719 64.469729h1.299364c6.097015 0 8.096037-8.096037 2.598728-10.794715C708.739126 37.982696 675.655322 25.488812 641.172203 16.493216 599.492607 5.598549 555.714038-0.098662 510.536154 0.001289 222.37722 0.700947-7.41029 237.38508 0.185992 525.444064c7.096526 271.667008 225.889418 490.559851 497.456474 497.856279 287.559228 7.796183 524.14341-220.891864 525.842579-508.551044 0.299853-44.977981-5.297407-88.656599-15.992171-130.236244z m-83.15929 301.552378c-22.588942 53.27392-54.873137 101.250434-95.953027 142.330323-41.179841 41.179841-89.056403 73.464036-142.330324 95.953027-55.172991 23.288599-113.744317 35.182777-174.314666 35.182777s-119.141675-11.794226-174.314666-35.182777c-53.27392-22.588942-101.250434-54.873137-142.330323-95.953027-41.179841-41.179841-73.464036-89.056403-95.953027-142.330323C75.749001 630.892442 63.954774 572.221164 63.954774 511.750767s11.794226-119.141675 35.182777-174.314666c22.588942-53.27392 54.873137-101.250434 95.953027-142.330323 41.179841-41.179841 89.056403-73.464036 142.330323-95.953027C392.593892 75.7642 451.26517 63.969974 511.735567 63.969974c13.99315 0 27.886348 0.599706 41.679596 1.89907C489.246577 118.643209 448.266638 198.704016 448.266638 288.360126c0 159.022152 128.836929 287.859081 287.859081 287.859081 89.156354 0 168.817357-40.580134 221.691473-104.149015 1.099462 13.09359 1.699168 26.387082 1.699168 39.680575 0 60.470397-11.794226 119.141675-35.182776 174.314666z" p-id="3461" fill="#cdcdcd"></path></svg>