<svg t="1653551181201" class="icon" viewBox="0 0 1024 1024" version="1.1" xmlns="http://www.w3.org/2000/svg" p-id="2356" width="200" height="200"><path d="M344.189719 297.542353l-57.889397-57.889397-48.231443 48.232466 57.889397 57.889397L344.189719 297.542353zM254.129654 480.812217l-96.462886 0L157.666768 545.103411l96.462886 0L254.129654 480.812217zM543.518311 162.503932l-64.291194 0 0 93.214915 64.291194 0L543.518311 162.503932zM784.677572 287.885422l-48.231443-48.232466-57.89042 57.889397 45.031568 45.027474L784.677572 287.885422zM678.555709 728.42137l57.89042 57.841302 45.07557-44.982449-57.934423-57.885304L678.555709 728.42137zM768.614751 545.103411l96.464932 0 0-64.291194-96.464932 0L768.614751 545.103411zM511.397785 320.009018c-106.116747 0-192.926795 86.855073-192.926795 192.927818 0 106.113677 86.810048 192.923725 192.926795 192.923725 106.11777 0 192.923725-86.810048 192.923725-192.923725C704.32151 406.864091 617.515555 320.009018 511.397785 320.009018M479.227117 863.459791l64.291194 0 0-93.259941-64.291194 0L479.227117 863.459791zM238.068879 738.030205l48.231443 48.231443 57.889397-57.841302-44.982449-45.027474L238.068879 738.030205z" p-id="2357"></path></svg>