<svg xmlns="http://www.w3.org/2000/svg" xmlns:xlink="http://www.w3.org/1999/xlink" width="500" zoomAndPan="magnify" viewBox="0 0 375 374.999991" height="500" preserveAspectRatio="xMidYMid meet" version="1.0"><defs><g/></defs><g fill="#000000" fill-opacity="1"><g transform="translate(6.545979, 212.587937)"><g><path d="M 28.570312 -51.613281 L 4.941406 -51.613281 L 4.941406 0 L 17.664062 0 L 17.664062 -18.246094 L 26.316406 -18.246094 C 31.769531 -18.246094 33.949219 -16.792969 34.238281 -12.429688 L 35.183594 0 L 47.90625 0 L 46.671875 -14.683594 C 46.234375 -20.355469 43.617188 -22.972656 37.945312 -23.554688 C 43.835938 -25.152344 47.46875 -29.441406 47.46875 -36.128906 C 47.46875 -46.234375 39.183594 -51.613281 28.570312 -51.613281 Z M 17.664062 -28.640625 L 17.664062 -41.21875 L 26.460938 -41.21875 C 31.695312 -41.21875 34.457031 -38.964844 34.457031 -34.894531 C 34.457031 -30.824219 31.695312 -28.640625 26.460938 -28.640625 Z M 17.664062 -28.640625 "/></g></g></g><g fill="#000000" fill-opacity="1"><g transform="translate(57.868911, 212.587937)"><g><path d="M 2.617188 -19.265625 C 2.617188 -7.125 10.757812 0.871094 23.117188 0.871094 C 32.421875 0.871094 39.765625 -3.851562 42.164062 -11.339844 L 29.585938 -12.210938 C 28.570312 -9.667969 25.953125 -7.996094 23.117188 -7.996094 C 18.753906 -7.996094 15.992188 -11.121094 15.703125 -16.066406 L 42.671875 -16.066406 L 42.671875 -17.882812 C 42.890625 -31.476562 34.53125 -39.402344 23.117188 -39.402344 C 10.757812 -39.402344 2.617188 -31.40625 2.617188 -19.265625 Z M 15.773438 -23.117188 C 16.210938 -27.695312 18.972656 -30.53125 23.117188 -30.53125 C 26.679688 -30.53125 29.585938 -28.277344 30.097656 -23.117188 Z M 15.773438 -23.117188 "/></g></g></g><g fill="#000000" fill-opacity="1"><g transform="translate(103.230807, 212.587937)"><g><path d="M 3.269531 -26.386719 L 15.773438 -25.878906 C 16.429688 -29.804688 18.464844 -31.769531 21.808594 -31.769531 C 25.808594 -31.769531 27.625 -29.296875 27.625 -23.988281 L 17.300781 -21.882812 C 7.777344 -19.992188 2.617188 -17.082031 2.617188 -10.175781 C 2.617188 -3.34375 8.578125 0.871094 16.429688 0.871094 C 23.769531 0.871094 28.132812 -1.671875 30.167969 -5.816406 C 31.476562 1.597656 40.347656 0.21875 42.382812 0.144531 L 44.125 0 L 44.125 -8.214844 L 42.816406 -8.214844 C 41.507812 -8.214844 40.347656 -8.652344 40.347656 -11.484375 L 40.347656 -22.464844 C 40.347656 -33.730469 34.238281 -39.402344 21.882812 -39.402344 C 11.121094 -39.402344 4.726562 -34.894531 3.269531 -26.386719 Z M 15.484375 -10.6875 C 15.484375 -14.101562 18.246094 -14.976562 22.390625 -15.703125 L 27.84375 -16.71875 L 27.84375 -16.355469 C 27.84375 -10.03125 24.933594 -6.832031 20.71875 -6.832031 C 17.300781 -6.832031 15.484375 -8.433594 15.484375 -10.6875 Z M 15.484375 -10.6875 "/></g></g></g><g fill="#000000" fill-opacity="1"><g transform="translate(149.246967, 212.587937)"><g><path d="M 29.949219 -23.117188 L 42.816406 -23.699219 C 41.800781 -33.441406 33.804688 -39.402344 23.117188 -39.402344 C 10.757812 -39.402344 2.617188 -31.40625 2.617188 -19.265625 C 2.617188 -7.125 10.757812 0.871094 23.117188 0.871094 C 34.09375 0.871094 42.019531 -5.308594 43.035156 -15.191406 L 30.167969 -15.628906 C 29.585938 -10.757812 26.898438 -8.433594 23.117188 -8.433594 C 18.246094 -8.433594 15.484375 -12.359375 15.484375 -19.265625 C 15.484375 -26.171875 18.246094 -30.097656 23.117188 -30.097656 C 26.679688 -30.097656 29.367188 -27.695312 29.949219 -23.117188 Z M 29.949219 -23.117188 "/></g></g></g><g fill="#000000" fill-opacity="1"><g transform="translate(194.172698, 212.587937)"><g><path d="M 9.085938 -47.324219 L 9.085938 -38.527344 L 2.617188 -38.527344 L 2.617188 -29.515625 L 9.085938 -29.515625 L 9.085938 -13.375 C 9.085938 -4.363281 13.667969 0 22.679688 0 L 31.839844 0 L 31.839844 -9.085938 L 25.734375 -9.085938 C 23.117188 -9.085938 21.589844 -10.6875 21.589844 -13.375 L 21.589844 -29.515625 L 31.695312 -29.515625 L 31.695312 -38.527344 L 21.589844 -38.527344 L 21.589844 -47.324219 Z M 9.085938 -47.324219 "/></g></g></g><g fill="#61dafb" fill-opacity="1"><g transform="translate(227.976506, 212.587937)"><g><path d="M 47.617188 -18.828125 L 47.617188 -51.6875 L 34.894531 -51.6875 L 34.894531 -18.828125 C 34.894531 -12.503906 31.550781 -9.230469 25.734375 -9.230469 C 19.992188 -9.230469 16.574219 -12.503906 16.574219 -18.828125 L 16.574219 -51.6875 L 3.851562 -51.6875 L 3.851562 -18.828125 C 3.851562 -6.617188 12.285156 1.164062 25.734375 1.164062 C 39.183594 1.164062 47.617188 -6.617188 47.617188 -18.828125 Z M 47.617188 -18.828125 "/></g></g></g><g fill="#61dafb" fill-opacity="1"><g transform="translate(279.444818, 212.587937)"><g><path d="M 27.695312 -25.808594 L 40.128906 -26.242188 C 38.890625 -34.601562 32.203125 -39.472656 21.882812 -39.472656 C 10.105469 -39.472656 3.5625 -34.894531 3.5625 -27.117188 C 3.5625 -20.210938 8.867188 -17.300781 20.71875 -15.121094 C 24.28125 -14.464844 27.332031 -13.738281 27.40625 -10.90625 C 27.550781 -8.503906 24.714844 -7.488281 22.097656 -7.488281 C 18.246094 -7.488281 15.847656 -9.378906 15.191406 -12.792969 L 2.617188 -12.285156 C 3.269531 -4 10.539062 0.871094 22.535156 0.871094 C 33.148438 0.871094 40.273438 -3.054688 40.273438 -10.757812 C 40.273438 -17.957031 35.039062 -21.082031 22.753906 -22.898438 C 19.335938 -23.480469 16.574219 -24.644531 16.429688 -27.117188 C 16.285156 -29.660156 18.464844 -31.257812 21.519531 -31.257812 C 24.425781 -31.257812 27.117188 -29.222656 27.695312 -25.808594 Z M 27.695312 -25.808594 "/></g></g></g><g fill="#61dafb" fill-opacity="1"><g transform="translate(322.553171, 212.587937)"><g><path d="M 2.617188 -19.265625 C 2.617188 -7.125 10.757812 0.871094 23.117188 0.871094 C 32.421875 0.871094 39.765625 -3.851562 42.164062 -11.339844 L 29.585938 -12.210938 C 28.570312 -9.667969 25.953125 -7.996094 23.117188 -7.996094 C 18.753906 -7.996094 15.992188 -11.121094 15.703125 -16.066406 L 42.671875 -16.066406 L 42.671875 -17.882812 C 42.890625 -31.476562 34.53125 -39.402344 23.117188 -39.402344 C 10.757812 -39.402344 2.617188 -31.40625 2.617188 -19.265625 Z M 15.773438 -23.117188 C 16.210938 -27.695312 18.972656 -30.53125 23.117188 -30.53125 C 26.679688 -30.53125 29.585938 -28.277344 30.097656 -23.117188 Z M 15.773438 -23.117188 "/></g></g></g></svg>